<svg width="75" height="85" viewBox="0 0 75 85" fill="none" xmlns="http://www.w3.org/2000/svg">
<path fill-rule="evenodd" clip-rule="evenodd" d="M51.441 10.5273C52.6101 9.15498 53.4014 7.47312 53.2692 5.58855C52.8882 0.15858 45.3295 1.35311 43.8592 4.09369C42.3889 6.83427 42.5636 13.786 44.4638 14.2758C45.2217 14.4711 46.8361 13.9926 48.4791 13.0023L47.4478 20.2985H53.5374L51.441 10.5273Z" fill="#915B3C"/>
<path fill-rule="evenodd" clip-rule="evenodd" d="M51.909 11.7497C52.6733 8.3494 54.8506 6.03155 54.5181 4.51178C54.2964 3.49859 53.7055 2.86853 52.7455 2.62159C52.2489 0.612888 50.6475 -0.241489 47.9412 0.0584537C43.8818 0.508368 41.4041 2.19421 42.4741 5.90379C43.4577 5.90379 44.6451 5.54809 46.2869 6.15752C46.8079 6.35089 47.1805 6.95055 47.4048 7.9565H48.1467C48.8668 6.76272 49.5768 6.32403 50.2768 6.64045C50.9767 6.95687 51.1359 7.72545 50.7541 8.9462L51.1196 11.7497H51.909Z" fill="#191847"/>
<path fill-rule="evenodd" clip-rule="evenodd" d="M70.5373 52.015H41.3582C39.1161 52.015 37.2985 53.8325 37.2985 56.0747V79.4179C37.2985 81.66 39.1161 83.4776 41.3582 83.4776H70.5373C72.7795 83.4776 74.597 81.66 74.597 79.4179V56.0747C74.597 53.8325 72.7795 52.015 70.5373 52.015ZM66.4776 59.1194C67.0382 59.1194 67.4926 59.5738 67.4926 60.1344V75.3582C67.4926 75.9188 67.0382 76.3732 66.4776 76.3732H45.4179C44.8574 76.3732 44.403 75.9188 44.403 75.3582V60.1344C44.403 59.5738 44.8574 59.1194 45.4179 59.1194H66.4776Z" fill="#C5CFD6"/>
<path fill-rule="evenodd" clip-rule="evenodd" d="M12.1388 82.209C17.1413 76.1002 20.5262 71.5714 22.2933 68.6226C25.3191 63.5736 27.7955 59.0809 28.577 57.3647C30.4406 53.2722 24.2867 51.3559 22.894 53.2648C20.786 56.1539 16.284 65.2452 9.3881 80.5388L12.1388 82.209Z" fill="#B28B67"/>
<path fill-rule="evenodd" clip-rule="evenodd" d="M22.3899 80.4328L31.6999 56.9974C33.6912 52.7253 24.0752 49.9171 22.6118 51.9052C19.2894 56.419 11.3929 74.225 10.4031 75.5698L22.3899 80.4328Z" fill="#2F3676"/>
<path fill-rule="evenodd" clip-rule="evenodd" d="M47.1857 75.733C45.3722 73.0876 38.7757 64.1875 35.1827 60.505C34.1502 59.4468 33.1428 58.4312 32.19 57.4847C29.3578 54.6714 23.7179 59.3999 26.5449 61.9624C33.5851 68.3438 43.8573 76.9585 44.7155 77.7266C45.9184 78.8031 48.3255 77.3955 47.1857 75.733Z" fill="#915B3C"/>
<path fill-rule="evenodd" clip-rule="evenodd" d="M46.7615 74.538C47.3863 75.0523 47.7927 75.4723 47.9808 75.7981C48.2095 76.1944 48.4774 76.8107 48.7843 77.6472C48.3246 77.9125 44.1934 80.2977 36.3906 84.8026C35.4539 83.9238 35.3079 83.2417 35.9528 82.7561C36.5977 82.2706 37.1298 81.8612 37.5493 81.5278L41.8271 75.6339C41.9094 75.5205 42.0681 75.4953 42.1815 75.5776C42.1834 75.5791 42.1853 75.5805 42.1872 75.582L43.0761 76.2664C43.8915 76.1952 44.5 76.0437 44.9016 75.8118C45.2279 75.6234 45.6024 75.2315 46.0252 74.636C46.1875 74.4074 46.5042 74.3537 46.7328 74.516C46.7426 74.5229 46.7522 74.5303 46.7615 74.538Z" fill="#E4E4E4"/>
<path fill-rule="evenodd" clip-rule="evenodd" d="M14.2908 81.296C14.5746 82.0538 14.7166 82.6207 14.7166 82.9969C14.7166 83.4545 14.6403 84.1222 14.4879 85C13.9571 85 9.18679 85 0.176971 85C-0.194918 83.7705 0.0197582 83.1068 0.821 83.0088C1.62224 82.9107 2.28785 82.8222 2.81782 82.7432L9.46939 79.7779C9.59738 79.7209 9.74739 79.7784 9.80445 79.9063C9.80543 79.9085 9.80637 79.9107 9.80728 79.9129L10.2348 80.9501C10.9766 81.2962 11.5793 81.4692 12.0431 81.4692C12.4198 81.4692 12.9402 81.317 13.6041 81.0127C13.8588 80.8959 14.1601 81.0078 14.2768 81.2625C14.2819 81.2735 14.2865 81.2847 14.2908 81.296Z" fill="#E4E4E4"/>
<path fill-rule="evenodd" clip-rule="evenodd" d="M35.05 58.1679C42.788 56.9073 47.971 56.0453 50.599 55.5819C58.0899 54.261 60.2744 50.23 58.9828 41.4349H45.1809C43.3544 41.9623 35.7228 45.2244 22.2859 51.2212C19.8683 52.4213 20.3186 55.9598 20.7605 57.1256C20.7785 57.1731 24.854 64.1567 32.9871 78.0763L44.2776 70.8838L35.0288 59.0155C34.7845 58.5235 34.7916 58.241 35.05 58.1679Z" fill="#5C63AB"/>
<path fill-rule="evenodd" clip-rule="evenodd" d="M34.0555 38.1133L25.962 44.0566C23.7668 44.649 21.9328 45.3859 20.46 46.2675C20.1121 46.5845 19.6917 47.2265 21.1345 47.1156C22.5773 47.0046 24.1 46.9528 24.299 47.4449C24.4981 47.9371 23.625 48.5256 24.0274 49.1896C24.2957 49.6323 25.5632 48.5223 27.8299 45.8596L35.8447 42.5361L34.0555 38.1133ZM65.1309 38.3185L59.8285 38.3393C63.1025 48.9082 64.8699 54.5159 65.1309 55.1626C65.718 56.6176 64.4756 58.8336 63.9442 60.0245C65.6747 60.7988 65.4903 57.9311 67.6732 58.9467C69.6657 59.8737 71.1814 61.5533 73.4834 60.1329C73.7664 59.9582 74.0766 59.3007 73.3272 58.7869C71.4603 57.5068 68.77 55.2664 68.4065 54.5289C67.9108 53.5233 66.8189 48.1198 65.1309 38.3185Z" fill="#915B3C"/>
<path fill-rule="evenodd" clip-rule="evenodd" d="M50.0625 16.0693L47.8685 15.693C39.7279 22.7253 36.3843 36.2351 26.406 43.3918L28.8077 46.3688C46.1182 44.2255 50.4088 27.7468 50.0625 16.0693Z" fill="#E87613"/>
<path fill-rule="evenodd" clip-rule="evenodd" d="M59.627 43.6418C50.8296 43.6418 44.3585 43.6418 40.2136 43.6418C39.3265 43.6418 39.4937 42.3609 39.6219 41.7145C41.1019 34.2547 46.8792 26.2134 46.8792 15.5945L52.4789 14.7164C57.1106 22.1656 58.7123 31.337 59.627 43.6418Z" fill="#DDE3E9"/>
<path fill-rule="evenodd" clip-rule="evenodd" d="M59.471 22.0386C60.2842 21.8048 60.9283 21.2596 61.4031 20.4029C63.4498 16.7098 62.7106 14.6764 60.5233 14.0081C58.3361 13.3397 56.3855 14.7164 52.9005 14.7164C52.711 14.7164 52.5374 14.7283 52.3797 14.7521L50.6267 14.8521C45.5971 31.8979 44.21 43.2706 46.4653 48.9702H61.7452C62.6505 51.0812 63.5168 52.8573 64.3441 54.2985H68.5076C68.8994 41.629 65.8872 30.8757 59.471 22.0386Z" fill="#FF9B21"/>
<path fill-rule="evenodd" clip-rule="evenodd" d="M58.4178 40.2158C57.9373 44.2365 57.1562 47.1547 56.0747 48.9702H61.7451C60.6891 46.5077 59.58 43.5896 58.4178 40.2158Z" fill="black" fill-opacity="0.1"/>
</svg>
